# xmcd CD database file
#
# Track frame offsets:
#	150
#	75611
#	91452
#	108380
#	147798
#	177343
#	198769
#	214992
#	234971
#	272042
#
# Disc length: 3886 seconds
#
# Revision: 1
# Processed by: cddbd v1.5.2PL0 Copyright (c) Steve Scherf et al.
# Submitted via: CDex 1.70beta2
#
DISCID=840f2c0a
DTITLE=Chamras Saewataporn - The River Of Forever
DYEAR=2002
DGENRE=New Age
TTITLE0=The River Of Forever
TTITLE1=The Last Poem On The Bank Of The Endless River
TTITLE2=When The Soft Wind Blows
TTITLE3=The River To Nimanoradee Paradise
TTITLE4=Two Banks Of River
TTITLE5=Somewhere In My Dream
TTITLE6=Return To Eternity
TTITLE7=The River That Never Return
TTITLE8=The Bridge Over Endless River
TTITLE9=The River Opera
EXTD=YEAR: 2002
EXTT0=
EXTT1=
EXTT2=
EXTT3=
EXTT4=
EXTT5=
EXTT6=
EXTT7=
EXTT8=
EXTT9=
PLAYORDER=
